<?xml version="1.0" standalone="no"?>
<!DOCTYPE svg PUBLIC "-//W3C//DTD SVG 20010904//EN"
 "http://www.w3.org/TR/2001/REC-SVG-20010904/DTD/svg10.dtd">
<svg version="1.0" xmlns="http://www.w3.org/2000/svg"
 width="3400.000000pt" height="2266.000000pt" viewBox="0 0 3400.000000 2266.000000"
 preserveAspectRatio="xMidYMid meet">

<g transform="translate(0.000000,2266.000000) scale(0.100000,-0.100000)"
fill="#000000" stroke="none">
<path d="M14361 20553 c-10 -38 -40 -201 -60 -323 -41 -249 -55 -810 -27
-1048 13 -109 26 -156 26 -96 1 39 35 193 61 274 59 179 190 404 313 537 l66
71 -26 63 c-36 90 -108 229 -165 322 -44 71 -167 237 -175 237 -2 0 -8 -17
-13 -37z"/>
<path d="M17260 18846 c-206 -71 -387 -226 -547 -468 -56 -85 -173 -303 -173
-323 0 -4 23 13 50 38 146 131 353 233 570 281 l105 23 23 79 c41 142 70 395
45 393 -5 0 -37 -10 -73 -23z"/>
<path d="M19925 14434 c-566 -70 -1083 -309 -1494 -690 -240 -223 -476 -554
-604 -849 -112 -258 -197 -568 -197 -721 0 -72 60 -106 112 -64 20 15 27 32
32 77 15 129 78 370 139 533 134 359 404 737 707 990 234 195 467 331 769 450
82 32 343 97 466 115 163 25 388 32 545 18 181 -16 174 -17 204 14 22 22 26
33 22 58 -11 52 -31 62 -146 73 -151 14 -428 12 -555 -4z"/>
<path d="M20125 13653 c-77 -3 -186 -19 -300 -43 -392 -83 -771 -319 -1033
-644 -153 -190 -291 -472 -341 -696 -7 -30 -17 -71 -22 -91 -5 -20 -9 -64 -9
-97 0 -52 3 -63 22 -76 12 -9 34 -16 48 -16 52 1 71 34 85 150 18 142 114 399
208 554 131 216 358 443 571 568 207 123 375 184 628 228 70 13 316 18 429 10
56 -4 70 -2 88 14 27 24 28 79 3 104 -26 26 -213 43 -377 35z"/>
<path d="M9370 13123 c0 -258 -3 -559 -7 -670 -6 -195 -5 -203 13 -203 47 1
100 39 159 115 105 135 268 238 437 277 68 16 270 15 328 -1 195 -53 354 -159
450 -302 68 -100 139 -143 201 -124 22 7 22 9 16 144 -16 349 -104 758 -238
1099 l-51 132 -654 0 -654 0 0 -467z"/>
<path d="M20033 12845 c-126 -23 -261 -78 -390 -161 -68 -44 -185 -154 -244
-232 -128 -169 -231 -467 -185 -536 37 -57 118 -38 134 31 5 21 15 63 22 93
46 202 189 406 366 523 159 104 321 149 522 145 120 -3 124 -2 143 21 38 47
20 104 -39 121 -50 14 -241 11 -329 -5z"/>
<path d="M32390 11366 l0 -204 -37 0 c-21 0 -149 -1 -284 -1 l-247 -1 -30 -28
c-22 -21 -38 -56 -66 -142 -40 -128 -39 -127 -80 -158 l-29 -22 -1044 0
c-1130 0 -1079 -2 -1116 53 -8 13 -30 71 -48 128 -24 79 -40 112 -65 137 l-32
32 -581 0 c-560 0 -582 -1 -635 -20 -108 -41 -176 -136 -183 -255 l-4 -70 20
44 c35 72 78 118 143 150 l61 31 590 0 589 0 32 -32 c24 -24 42 -61 66 -133
18 -55 39 -112 47 -127 30 -61 -28 -59 1122 -56 l1050 3 31 30 c23 22 38 54
61 130 17 55 38 112 45 127 31 60 18 59 667 56 584 -3 593 -3 632 -25 55 -29
114 -90 139 -143 l21 -45 3 -5089 2 -5089 -24 -52 c-30 -67 -97 -130 -163
-155 -48 -18 -80 -20 -353 -20 l-300 -1 0 -204 0 -204 460 -1 c384 0 472 2
537 16 306 63 544 307 599 614 20 113 20 10189 0 10300 -47 256 -219 472 -457
572 -131 55 -168 58 -675 58 l-464 0 0 -204z"/>
<path d="M29876 11144 c-24 -23 -20 -70 6 -88 20 -14 102 -16 688 -16 733 0
710 -2 710 60 0 63 36 60 -710 60 -604 0 -680 -2 -694 -16z"/>
<path d="M8474 10301 c-112 -51 -123 -219 -19 -290 99 -67 244 -10 262 104 6
35 6 35 -33 35 -75 0 -136 58 -138 130 -1 46 -10 49 -72 21z"/>
<path d="M9850 10297 c-102 -54 -119 -189 -34 -269 56 -52 120 -61 191 -27 49
24 76 57 91 112 l10 37 -41 0 c-78 0 -138 56 -139 129 0 49 -14 52 -78 18z"/>
<path d="M21928 10250 c-1 -5 -43 -52 -91 -105 -49 -52 -87 -101 -84 -108 3
-7 122 -203 265 -437 l260 -425 182 -3 c144 -2 181 0 177 10 -2 7 -133 225
-290 483 -299 492 -402 634 -419 585z"/>
<path d="M7640 9970 c-13 -9 -13 -10 0 -10 13 0 13 -1 0 -10 -13 -9 -13 -10 0
-10 13 0 13 -1 0 -10 -13 -9 -13 -10 0 -10 13 0 13 -1 0 -10 -13 -9 -13 -10 0
-10 13 0 13 -1 0 -10 -13 -9 -13 -10 0 -10 13 0 13 -1 0 -10 -13 -9 -13 -10 0
-10 13 0 13 -1 0 -10 -13 -9 -13 -10 0 -10 13 0 13 -1 0 -10 -13 -9 -13 -10 0
-10 13 0 13 -1 0 -10 -11 -7 -4 -10 27 -10 23 0 48 -3 57 -6 14 -5 16 6 16 84
0 73 -3 91 -16 96 -23 9 -67 7 -84 -4z"/>
<path d="M10627 9973 c-4 -3 -7 -46 -7 -95 0 -97 -1 -96 69 -82 l31 7 0 88 0
89 -43 0 c-24 0 -47 -3 -50 -7z"/>
<path d="M30485 9604 c-76 -39 -115 -101 -115 -183 0 -61 13 -97 48 -134 44
-47 80 -59 207 -73 66 -7 132 -15 148 -19 l27 -7 0 205 0 205 -63 11 c-94 16
-216 14 -252 -5z"/>
<path d="M30814 9385 c0 -115 2 -161 3 -102 2 59 2 154 0 210 -1 56 -3 8 -3
-108z"/>
<path d="M8812 9480 c24 -177 177 -331 360 -362 230 -38 457 135 492 375 l7
47 -434 0 -434 0 9 -60z"/>
<path d="M30463 8905 c-161 -36 -289 -154 -344 -316 -18 -54 -20 -80 -17 -166
4 -94 8 -109 42 -178 49 -100 121 -172 222 -221 70 -35 86 -39 174 -42 153 -6
250 28 352 126 108 103 155 221 145 367 -6 100 -35 178 -95 258 -110 143 -302
213 -479 172z"/>
<path d="M19115 8706 c-23 -23 -24 -27 -22 -191 l2 -167 32 -28 c20 -18 48
-31 75 -35 24 -3 887 -5 1918 -3 1772 3 1876 4 1901 21 43 29 49 56 49 226 0
120 -3 162 -14 177 -14 19 -47 19 -1966 22 l-1951 2 -24 -24z"/>
<path d="M29529 8637 c-121 -45 -154 -127 -130 -324 35 -283 171 -548 379
-737 l43 -40 -4 385 c-6 571 -20 644 -129 700 -51 26 -115 32 -159 16z"/>
<path d="M19112 7822 c-16 -16 -19 -39 -21 -169 -2 -115 1 -159 13 -186 28
-68 22 -67 541 -67 519 0 513 -1 541 67 12 27 15 71 13 186 -2 130 -5 153 -21
169 -17 17 -48 18 -533 18 -485 0 -516 -1 -533 -18z"/>
<path d="M20547 7822 c-14 -16 -17 -43 -17 -175 0 -85 4 -167 10 -181 5 -14
24 -35 42 -46 32 -19 51 -20 507 -20 l473 0 34 34 34 34 0 170 c0 142 -3 173
-16 186 -14 14 -76 16 -533 16 -489 0 -519 -1 -534 -18z"/>
<path d="M21986 7824 c-13 -13 -16 -44 -16 -185 l0 -169 29 -32 29 -33 492 0
492 0 29 33 29 32 0 169 c0 141 -3 172 -16 185 -14 14 -76 16 -534 16 -458 0
-520 -2 -534 -16z"/>
<path d="M4270 5617 l0 -227 965 0 965 0 0 220 0 220 -292 0 c-161 0 -596 3
-965 7 l-673 6 0 -226z"/>
<path d="M10860 5617 l0 -227 390 0 390 0 0 220 0 220 -103 0 c-57 0 -233 3
-390 7 l-287 6 0 -226z"/>
<path d="M31935 4538 c12 -44 30 -70 57 -84 40 -21 547 -20 587 0 28 15 51 53
51 86 0 19 -9 20 -351 20 l-350 0 6 -22z"/>
<path d="M19147 4413 c-50 -8 -56 -31 -54 -210 l2 -163 33 -32 32 -33 1908 -3
c1800 -2 1909 -1 1942 15 54 28 60 49 60 229 0 123 -3 165 -14 180 -14 19 -46
19 -1948 20 -1063 1 -1945 -1 -1961 -3z"/>
<path d="M16240 3348 c0 -346 4 -569 10 -578 9 -13 10 -13 10 0 0 13 1 13 10
0 9 -13 10 -13 10 0 0 13 1 13 10 0 9 -13 10 -13 10 0 0 13 1 13 10 0 9 -13
10 -13 10 0 0 13 1 13 10 0 9 -13 10 -13 10 0 0 13 1 13 10 0 9 -13 10 -13 10
0 0 13 1 13 10 0 9 -13 10 -13 10 0 0 13 1 13 10 0 9 -13 10 -13 10 0 0 12 2
13 9 1 7 -11 10 -10 14 5 3 11 7 255 9 544 3 567 4 555 -49 579 -13 6 -51 11
-83 11 l-60 0 0 -562z"/>
<path d="M15814 3854 c-17 -8 -36 -26 -43 -40 -8 -18 -11 -175 -11 -528 0
-489 1 -504 20 -526 l20 -23 0 23 0 23 20 -23 20 -23 0 23 0 23 20 -23 20 -23
0 23 0 23 20 -23 20 -23 1 24 c0 13 3 18 6 12 19 -49 23 39 23 542 l0 555 -52
0 c-29 0 -67 -7 -84 -16z"/>
<path d="M19110 3510 c-19 -19 -20 -36 -20 -1170 0 -1246 -3 -1186 52 -1224
20 -14 219 -16 1941 -16 l1919 0 34 34 34 34 0 1164 c0 1116 -1 1166 -18 1181
-17 16 -168 17 -1970 17 -1933 0 -1952 0 -1972 -20z"/>
<path d="M17340 3241 c0 -93 3 -176 6 -185 5 -13 24 -16 101 -16 l94 0 -3 156
-3 156 -33 29 c-29 26 -40 29 -97 29 l-65 0 0 -169z"/>
<path d="M14741 3366 c-44 -24 -50 -51 -51 -203 l0 -143 95 0 95 0 0 180 0
180 -57 0 c-32 -1 -69 -7 -82 -14z"/>
<path d="M31932 3293 c5 -85 17 -112 59 -137 23 -14 67 -16 299 -16 l272 0 35
35 c34 34 34 35 32 115 l-2 80 -350 0 -350 0 5 -77z"/>
<path d="M5464 2075 c-144 -31 -265 -98 -373 -205 -182 -180 -257 -428 -205
-678 46 -225 194 -417 397 -517 129 -63 197 -79 342 -78 107 0 130 4 212 31
50 17 115 44 145 61 318 181 460 559 340 900 -41 115 -86 185 -182 282 -71 72
-101 93 -180 132 -52 26 -131 56 -174 67 -92 23 -229 25 -322 5z"/>
<path d="M11460 1340 l0 -750 750 0 750 0 0 750 0 750 -750 0 -750 0 0 -750z"/>
<path d="M8770 1640 l0 -150 745 0 745 0 0 150 0 150 -745 0 -745 0 0 -150z"/>
<path d="M28504 1231 c-2 -2 -4 -54 -4 -114 0 -95 2 -108 16 -103 9 3 912 6
2008 6 l1993 0 34 23 c55 37 80 83 77 142 l-3 50 -2058 0 c-1132 0 -2061 -2
-2063 -4z"/>
<path d="M8770 1040 l0 -150 745 0 745 0 0 150 0 150 -745 0 -745 0 0 -150z"/>
<path d="M20200 418 c0 -216 4 -260 25 -260 4 0 12 6 16 14 5 7 9 8 9 2 0 -14
30 -14 30 0 0 6 4 5 9 -2 4 -8 12 -14 16 -14 4 0 12 6 16 14 5 7 9 8 9 2 0
-14 30 -14 30 0 0 6 4 5 9 -2 4 -8 12 -14 16 -14 4 0 12 6 16 14 5 7 9 8 9 2
0 -14 30 -14 30 0 0 7 3 7 8 1 11 -15 32 -17 32 -3 0 10 2 10 9 0 4 -8 12 -14
16 -14 4 0 12 6 16 14 5 7 9 8 9 2 0 -14 30 -14 30 0 0 6 4 5 9 -2 11 -17 21
-17 32 0 7 11 9 11 9 -1 0 -11 3 -11 15 -1 13 10 15 51 15 246 l0 234 -220 0
-220 0 0 -232z"/>
<path d="M22852 418 c3 -224 9 -278 29 -247 5 8 9 9 9 3 0 -14 30 -14 30 0 0
6 4 5 9 -2 4 -8 12 -14 16 -14 4 0 12 6 16 14 5 7 9 8 9 2 0 -14 30 -14 30 0
0 6 4 5 9 -2 11 -17 21 -17 32 0 5 7 9 8 9 2 0 -14 30 -14 30 0 0 6 4 5 9 -2
4 -8 12 -14 16 -14 4 0 12 6 16 14 5 7 9 8 9 2 0 -14 30 -14 30 0 0 6 4 5 9
-2 11 -17 21 -17 32 0 5 7 9 8 9 2 0 -14 30 -14 30 0 0 6 4 5 9 -2 11 -17 21
-17 32 0 5 7 9 118 9 246 l0 232 -221 0 -221 0 4 -232z"/>
<path d="M24784 598 c3 -29 6 -141 6 -248 0 -130 4 -190 10 -180 5 8 10 10 10
4 0 -14 30 -14 30 0 0 6 4 5 9 -2 11 -17 21 -17 32 0 5 7 9 8 9 2 0 -14 30
-14 30 0 0 6 4 5 9 -2 4 -8 12 -14 16 -14 4 0 12 6 16 14 5 7 9 8 9 2 0 -14
30 -14 30 0 0 6 4 5 9 -2 11 -17 21 -17 32 0 5 7 9 8 9 2 0 -14 30 -14 30 0 0
6 4 5 9 -2 11 -17 21 -17 32 0 5 7 9 8 9 2 0 -14 30 -14 30 0 0 7 3 7 8 1 11
-15 32 -17 32 -3 0 9 4 8 10 -2 6 -10 10 69 10 233 l0 247 -221 0 -222 0 7
-52z"/>
<path d="M27440 418 c0 -216 4 -260 25 -260 4 0 12 6 16 14 5 7 9 8 9 2 0 -14
30 -14 30 0 0 6 4 5 9 -2 4 -8 12 -14 16 -14 4 0 12 6 16 14 5 7 9 8 9 2 0
-14 30 -14 30 0 0 6 4 5 9 -2 4 -8 12 -14 16 -14 4 0 12 6 16 14 5 7 9 8 9 2
0 -14 30 -14 30 0 0 6 4 5 9 -2 11 -17 21 -17 32 0 5 7 9 8 9 2 0 -6 7 -11 15
-11 26 0 17 18 -45 84 -80 85 -141 192 -175 308 -27 91 -29 95 -57 95 l-28 0
0 -232z"/>
</g>
</svg>
