<?xml version="1.0" standalone="no"?>
<!DOCTYPE svg PUBLIC "-//W3C//DTD SVG 20010904//EN"
 "http://www.w3.org/TR/2001/REC-SVG-20010904/DTD/svg10.dtd">
<svg version="1.0" xmlns="http://www.w3.org/2000/svg"
 width="3400.000000pt" height="2266.000000pt" viewBox="0 0 3400.000000 2266.000000"
 preserveAspectRatio="xMidYMid meet">

<g transform="translate(0.000000,2266.000000) scale(0.100000,-0.100000)"
fill="#000000" stroke="none">
<path d="M27221 19263 c1 -681 5 -1249 9 -1263 l8 -25 1 25 c1 20 3 22 11 10
9 -13 10 -13 11 0 0 8 5 4 9 -10 l8 -25 1 25 c1 20 3 22 11 10 9 -13 10 -13
11 0 0 8 5 4 9 -10 l8 -25 1 25 c1 20 3 22 11 10 9 -13 10 -13 11 0 0 8 5 4 9
-10 l8 -25 1 25 c1 20 3 22 11 10 9 -13 10 -13 11 0 0 8 5 4 9 -10 l8 -25 1
25 c1 20 3 22 11 10 9 -13 10 -13 11 0 0 8 5 4 9 -10 l8 -25 1 25 c1 20 3 22
11 10 9 -13 10 -13 11 0 0 8 5 4 9 -10 l8 -25 1 25 c1 20 3 22 11 10 9 -13 10
-13 11 0 0 8 5 4 9 -10 l8 -25 1 25 c1 20 3 22 11 10 9 -13 10 -13 11 0 0 8 5
4 9 -10 l8 -25 1 25 c1 20 3 22 11 10 9 -13 10 -13 11 0 0 8 5 4 9 -10 l8 -25
1 25 c1 18 4 21 10 11 7 -11 9 -11 14 0 3 8 6 3 7 -11 l2 -25 8 25 c4 14 8
544 9 1178 1 1251 4 1191 -52 1250 -50 54 -92 66 -239 70 l-138 4 1 -1239z"/>
<path d="M26502 20410 c-53 -13 -108 -55 -131 -102 l-21 -44 0 -1105 c0 -716
4 -1099 10 -1089 9 13 10 13 10 0 0 -13 1 -13 10 0 9 13 10 13 10 0 0 -13 1
-13 10 0 9 13 10 13 10 0 0 -13 1 -13 10 0 9 13 10 13 10 0 0 -13 1 -13 10 0
9 13 10 13 10 0 0 -13 1 -13 10 0 9 13 10 13 10 0 0 -13 1 -13 10 0 9 13 10
13 10 0 0 -13 1 -13 10 0 9 13 10 13 10 0 0 -13 1 -13 10 0 9 13 10 13 10 0 0
-13 1 -13 10 0 9 13 10 13 10 0 0 -13 1 -13 10 0 9 13 10 13 10 0 0 -13 1 -13
10 0 9 13 10 13 10 0 0 -13 1 -13 10 0 9 13 10 13 10 0 0 -13 1 -13 10 0 9 13
10 13 10 0 0 -13 1 -13 10 0 9 13 10 13 10 0 0 -13 1 -13 10 0 9 13 10 13 10
0 0 -13 1 -13 10 0 9 13 10 13 10 0 0 -13 1 -13 10 0 9 13 10 13 10 0 0 -13 1
-13 10 0 8 12 10 12 10 1 0 -8 3 -11 8 -7 4 4 9 536 12 1182 l5 1174 -110 -1
c-60 -1 -125 -5 -143 -9z"/>
<path d="M29642 18993 l3 -408 213 -1 212 -1 0 316 c0 193 -4 331 -11 355 -14
50 -82 118 -135 134 -23 6 -96 12 -163 12 l-121 0 2 -407z"/>
<path d="M24190 19358 c-24 -13 -58 -40 -74 -61 l-31 -39 -3 -314 c-2 -199 1
-321 7 -332 8 -13 10 -14 11 -2 0 13 1 13 10 0 9 -13 10 -13 10 0 0 13 1 13
10 0 9 -13 10 -13 10 0 0 13 1 13 10 0 9 -13 10 -13 10 0 0 13 1 13 10 0 9
-13 10 -13 10 0 0 13 1 13 10 0 9 -13 10 -13 10 0 0 13 1 13 10 0 9 -13 10
-13 10 0 0 13 1 13 10 0 9 -13 10 -13 10 0 0 13 1 13 10 0 9 -13 10 -13 10 0
0 13 1 13 10 0 9 -13 10 -13 10 0 0 13 1 13 10 0 9 -13 10 -13 10 0 0 13 1 13
10 0 9 -13 10 -13 10 0 0 13 1 13 10 0 9 -13 10 -13 10 0 0 13 1 13 10 0 9
-13 10 -13 10 0 0 13 1 13 10 0 9 -13 10 -13 10 0 0 13 1 13 10 0 9 -13 10
-13 10 0 0 13 1 13 10 0 9 -13 10 -13 10 0 0 13 1 13 10 0 9 -13 10 -13 10 0
0 13 1 13 10 0 9 -13 10 -13 10 0 0 13 1 13 10 0 6 -10 10 120 10 378 l0 392
-123 0 c-108 0 -128 -3 -167 -22z"/>
<path d="M4300 15515 l0 -485 -55 0 c-46 0 -60 -4 -80 -25 -21 -20 -25 -34
-25 -85 l0 -60 -195 0 c-188 0 -195 -1 -195 -20 0 -19 7 -20 200 -20 l200 0 0
-29 c0 -16 13 -231 30 -478 45 -688 49 -767 36 -775 -6 -4 -12 -3 -14 2 -2 6
-11 6 -23 0 -13 -8 -19 -7 -19 0 0 8 -6 8 -20 0 -14 -8 -20 -8 -20 0 0 8 -6 8
-20 0 -14 -8 -20 -8 -20 0 0 8 -6 8 -20 0 -14 -8 -20 -8 -20 0 0 7 -6 8 -19 0
-12 -6 -21 -6 -23 0 -2 6 -9 6 -17 0 -13 -7 -12 -56 7 -362 12 -194 22 -359
22 -365 0 -10 147 -13 704 -13 l704 0 6 68 c6 58 136 1924 136 1945 0 4 23 7
50 7 43 0 50 3 50 20 0 17 -7 20 -49 20 l-49 0 6 45 c2 25 -1 58 -8 75 -23 55
-47 60 -270 60 l-200 0 0 350 0 350 -130 0 -130 0 0 -348 0 -349 -127 -6 c-70
-3 -130 -4 -135 -1 -4 3 -8 221 -8 485 l0 479 -130 0 -130 0 0 -485z m167
-481 c-3 -3 -12 -4 -19 -1 -8 3 -5 6 6 6 11 1 17 -2 13 -5z"/>
<path d="M17610 13997 l0 -167 110 0 c61 0 110 2 110 5 0 6 -197 304 -211 320
-5 5 -9 -62 -9 -158z"/>
<path d="M22795 13445 c0 -209 1 -296 2 -193 2 103 2 274 0 380 -1 106 -2 22
-2 -187z"/>
<path d="M22810 13445 l0 -375 415 0 415 0 -1 318 c0 351 -3 372 -58 409 l-35
23 -368 0 -368 -1 0 -374z"/>
<path d="M28150 12410 l0 -220 -277 0 c-153 0 -296 -5 -318 -10 -57 -13 -78
-43 -120 -172 -48 -143 -59 -164 -98 -188 -31 -19 -59 -20 -1170 -20 -1241 0
-1173 -3 -1212 56 -10 15 -37 84 -59 153 -37 111 -46 128 -76 149 l-34 23
-650 -3 c-616 -3 -653 -4 -686 -22 -129 -69 -191 -175 -189 -321 1 -57 1 -58
10 -22 19 83 83 164 160 203 82 41 148 45 764 42 533 -3 583 -4 612 -21 38
-20 60 -59 98 -177 15 -47 36 -102 46 -122 37 -73 -48 -68 1216 -68 1111 0
1139 1 1170 20 39 24 50 45 98 189 41 124 63 154 124 171 47 13 1155 13 1234
0 119 -19 213 -95 258 -206 l24 -59 0 -5530 c0 -5338 -1 -5532 -18 -5583 -23
-65 -98 -149 -163 -182 -49 -25 -50 -25 -386 -28 -310 -3 -338 -4 -339 -20 0
-14 -2 -13 -9 3 -5 12 -9 -71 -9 -207 l-1 -227 489 -1 c312 0 516 4 561 11
323 50 582 278 682 601 l23 73 3 5580 c2 3909 -1 5601 -8 5650 -48 314 -267
567 -580 672 l-85 28 -542 3 -543 3 0 -221z m17 188 c-3 -8 -6 -5 -6 6 -1 11
2 17 5 13 3 -3 4 -12 1 -19z m0 -40 c-3 -8 -6 -5 -6 6 -1 11 2 17 5 13 3 -3 4
-12 1 -19z m0 -40 c-3 -8 -6 -5 -6 6 -1 11 2 17 5 13 3 -3 4 -12 1 -19z m0
-40 c-3 -8 -6 -5 -6 6 -1 11 2 17 5 13 3 -3 4 -12 1 -19z m0 -40 c-3 -8 -6 -5
-6 6 -1 11 2 17 5 13 3 -3 4 -12 1 -19z m0 -40 c-3 -8 -6 -5 -6 6 -1 11 2 17
5 13 3 -3 4 -12 1 -19z m0 -40 c-3 -8 -6 -5 -6 6 -1 11 2 17 5 13 3 -3 4 -12
1 -19z m0 -40 c-3 -8 -6 -5 -6 6 -1 11 2 17 5 13 3 -3 4 -12 1 -19z m0 -40
c-3 -8 -6 -5 -6 6 -1 11 2 17 5 13 3 -3 4 -12 1 -19z m0 -40 c-3 -8 -6 -5 -6
6 -1 11 2 17 5 13 3 -3 4 -12 1 -19z m0 -40 c-3 -8 -6 -5 -6 6 -1 11 2 17 5
13 3 -3 4 -12 1 -19z m0 -11800 c-3 -8 -6 -5 -6 6 -1 11 2 17 5 13 3 -3 4 -12
1 -19z m0 -40 c-3 -8 -6 -5 -6 6 -1 11 2 17 5 13 3 -3 4 -12 1 -19z m0 -40
c-3 -8 -6 -5 -6 6 -1 11 2 17 5 13 3 -3 4 -12 1 -19z m0 -40 c-3 -8 -6 -5 -6
6 -1 11 2 17 5 13 3 -3 4 -12 1 -19z m0 -40 c-3 -8 -6 -5 -6 6 -1 11 2 17 5
13 3 -3 4 -12 1 -19z m0 -40 c-3 -8 -6 -5 -6 6 -1 11 2 17 5 13 3 -3 4 -12 1
-19z m0 -40 c-3 -8 -6 -5 -6 6 -1 11 2 17 5 13 3 -3 4 -12 1 -19z m0 -40 c-3
-8 -6 -5 -6 6 -1 11 2 17 5 13 3 -3 4 -12 1 -19z m0 -40 c-3 -8 -6 -5 -6 6 -1
11 2 17 5 13 3 -3 4 -12 1 -19z m0 -40 c-3 -8 -6 -5 -6 6 -1 11 2 17 5 13 3
-3 4 -12 1 -19z"/>
<path d="M4314 12246 c-18 -8 -34 -24 -37 -37 -3 -13 -6 -103 -7 -201 -1 -192
5 -222 55 -268 l27 -25 2366 -2 c2332 -3 2367 -3 2399 17 64 39 68 54 69 265
1 104 -3 202 -8 217 -6 16 -21 31 -40 37 -21 8 -751 11 -2412 11 -1978 -1
-2386 -3 -2412 -14z"/>
<path d="M25433 12180 c-47 -19 -56 -78 -17 -109 26 -21 33 -21 755 -21 716 0
729 0 749 20 20 20 26 65 12 86 -22 33 -48 34 -764 33 -392 0 -723 -4 -735 -9z"/>
<path d="M4304 11152 c-26 -17 -32 -56 -33 -234 -2 -211 5 -241 64 -278 32
-20 44 -20 628 -18 l596 3 31 30 c46 44 53 87 48 289 -4 172 -5 180 -27 197
-22 18 -55 19 -660 19 -350 0 -641 -4 -647 -8z"/>
<path d="M6070 11140 c-19 -19 -20 -33 -20 -220 0 -223 5 -245 63 -280 31 -19
54 -20 617 -20 563 0 586 1 617 20 58 35 63 57 63 280 0 187 -1 201 -20 220
-20 20 -33 20 -660 20 -627 0 -640 0 -660 -20z"/>
<path d="M7854 11152 c-26 -17 -32 -56 -33 -234 -2 -211 5 -241 64 -278 32
-20 44 -20 628 -18 l596 3 31 30 c46 44 53 87 48 289 -4 172 -5 180 -27 197
-22 18 -55 19 -660 19 -350 0 -641 -4 -647 -8z"/>
<path d="M26072 10483 c-45 -22 -92 -70 -108 -110 -22 -52 -18 -143 9 -194 45
-85 88 -103 312 -129 50 -5 100 -13 113 -16 l22 -6 0 225 0 225 -63 11 c-97
17 -245 14 -285 -6z"/>
<path d="M26434 10245 c0 -126 2 -177 3 -112 2 65 2 168 0 230 -1 62 -3 9 -3
-118z"/>
<path d="M26089 9730 c-160 -25 -301 -125 -379 -271 -180 -338 70 -749 454
-749 146 0 261 46 362 145 160 156 200 400 99 600 -97 191 -322 307 -536 275z"/>
<path d="M25005 9418 c-58 -30 -75 -47 -101 -103 -29 -60 -31 -131 -9 -284 30
-211 126 -431 263 -604 68 -86 172 -187 192 -187 13 0 13 1 0 10 -13 9 -13 10
0 10 13 0 13 1 0 10 -13 9 -13 10 0 10 13 0 13 1 0 10 -13 9 -13 10 0 10 13 0
13 1 0 10 -13 9 -13 10 0 10 13 0 13 1 0 10 -13 9 -13 10 0 10 13 0 13 1 0 10
-13 9 -13 10 0 10 13 0 13 1 0 10 -13 9 -13 10 0 10 13 0 13 1 0 10 -13 9 -13
10 0 10 13 0 13 1 0 10 -13 9 -13 10 0 10 13 0 13 1 0 10 -13 9 -13 10 0 10
13 0 13 1 0 10 -13 9 -13 10 0 10 13 0 13 1 0 10 -13 9 -13 10 0 10 13 0 13 1
0 10 -13 9 -13 10 0 10 13 0 13 1 0 10 -13 9 -13 10 0 10 13 0 13 1 0 10 -13
9 -13 10 0 10 13 0 13 1 0 10 -13 9 -13 10 0 10 13 0 13 1 0 10 -13 9 -13 10
0 10 13 0 13 1 0 10 -13 9 -13 10 0 10 13 0 13 1 0 10 -13 9 -13 10 0 10 13 0
13 1 0 10 -13 9 -13 10 0 10 13 0 13 1 0 10 -13 9 -13 10 0 10 13 0 13 1 0 10
-13 9 -13 10 0 10 13 0 13 1 0 10 -13 9 -13 10 0 10 13 0 13 1 0 10 -13 9 -13
10 0 10 13 0 13 1 0 10 -13 9 -13 10 0 10 13 0 13 1 0 10 -13 9 -13 10 0 10
13 0 13 1 0 10 -13 9 -13 10 0 10 13 0 13 1 0 10 -13 9 -13 10 0 10 13 0 13 1
0 10 -13 9 -13 10 0 10 13 0 13 1 0 10 -13 9 -13 10 0 10 13 0 13 1 0 10 -13
9 -13 10 0 10 13 0 13 1 0 10 -13 9 -13 10 0 10 13 0 13 1 0 10 -13 9 -13 10
0 10 13 0 13 1 0 10 -13 9 -13 10 0 10 13 0 13 1 0 10 -13 9 -13 10 0 10 13 0
13 1 0 10 -13 9 -13 10 0 10 13 0 13 1 0 10 -13 9 -13 10 0 10 9 0 11 3 5 8
-6 4 -10 14 -10 22 1 8 -3 29 -7 45 -4 17 -12 78 -17 137 -8 92 -13 113 -38
150 -57 87 -188 123 -278 76z"/>
<path d="M21468 9238 c-4 -9 -6 -229 -5 -487 l2 -470 29 -30 c41 -43 79 -51
251 -51 137 0 155 2 195 23 82 41 80 28 79 542 -1 248 -5 439 -9 425 -7 -21
-8 -18 -9 20 -1 29 -4 40 -10 31 -7 -11 -9 -11 -14 0 -4 10 -6 9 -6 -3 -1 -10
4 -18 9 -18 6 0 10 -8 10 -17 0 -15 -2 -15 -9 -4 -7 11 -10 9 -14 -10 -2 -14
-5 -5 -6 21 -1 30 -4 40 -10 31 -7 -11 -9 -11 -14 0 -4 10 -6 9 -6 -3 -1 -10
4 -18 9 -18 6 0 10 -8 10 -17 0 -15 -2 -15 -9 -4 -7 11 -10 9 -14 -10 -2 -14
-5 -5 -6 21 -1 30 -4 40 -10 31 -7 -11 -9 -11 -14 0 -4 10 -6 9 -6 -3 -1 -10
4 -18 9 -18 6 0 10 -8 10 -17 0 -15 -2 -15 -9 -4 -7 11 -10 9 -14 -10 -2 -14
-5 -5 -6 21 -1 30 -4 40 -10 31 -7 -11 -9 -11 -14 0 -4 10 -6 9 -6 -3 -1 -10
4 -18 9 -18 6 0 10 -8 10 -17 0 -15 -2 -15 -9 -4 -7 11 -10 9 -14 -10 -2 -14
-5 -5 -6 21 -1 30 -4 40 -10 31 -7 -11 -9 -11 -14 0 -4 10 -6 9 -6 -3 -1 -10
4 -18 9 -18 6 0 10 -8 10 -17 0 -15 -2 -15 -9 -4 -7 11 -10 9 -14 -10 -2 -14
-5 -5 -6 21 -1 30 -4 40 -10 31 -7 -11 -9 -11 -14 0 -4 10 -6 9 -6 -3 -1 -10
4 -18 9 -18 6 0 10 -8 10 -17 0 -15 -2 -15 -9 -4 -7 11 -10 9 -14 -10 -2 -14
-5 -5 -6 21 -1 30 -4 40 -10 31 -7 -11 -9 -11 -14 0 -4 10 -6 9 -6 -3 -1 -10
4 -18 9 -18 6 0 10 -8 10 -17 0 -15 -2 -15 -9 -4 -7 11 -10 9 -14 -10 -2 -14
-5 -5 -6 21 -1 30 -4 40 -10 31 -7 -11 -9 -11 -14 0 -4 10 -6 9 -6 -3 -1 -10
4 -18 9 -18 6 0 10 -8 10 -17 0 -15 -2 -15 -9 -4 -7 11 -10 9 -14 -10 -2 -14
-5 -5 -6 21 -1 30 -4 40 -10 31 -7 -11 -9 -11 -14 0 -4 10 -6 9 -6 -3 -1 -10
4 -18 9 -18 6 0 10 -8 10 -17 0 -15 -2 -15 -9 -4 -7 11 -10 9 -14 -10 -3 -15
-5 -7 -6 21 -2 25 -5 39 -8 31 -5 -11 -7 -11 -14 0 -7 11 -9 10 -9 -3 0 -10 5
-18 10 -18 6 0 10 -8 10 -17 0 -15 -2 -15 -9 -4 -7 11 -10 9 -14 -10 -2 -14
-5 -5 -6 21 -1 30 -4 40 -10 31 -7 -11 -9 -11 -14 0 -4 10 -6 9 -6 -3 -1 -10
4 -18 9 -18 6 0 10 -8 10 -17 0 -15 -2 -15 -9 -4 -7 11 -10 9 -14 -10 -2 -14
-5 -5 -6 21 -1 30 -4 40 -10 31 -7 -11 -9 -11 -14 0 -4 10 -6 9 -6 -3 -1 -10
4 -18 9 -18 6 0 10 -8 10 -17 0 -15 -2 -15 -9 -4 -7 11 -10 9 -14 -10 -2 -14
-5 -5 -6 21 -1 30 -4 40 -10 31 -7 -11 -9 -11 -14 0 -4 10 -6 9 -6 -3 -1 -10
4 -18 9 -18 6 0 10 -8 10 -17 0 -15 -2 -16 -10 -3 -8 12 -10 10 -11 -10 -1
-14 -5 -5 -8 20 -4 31 -8 40 -13 28z"/>
<path d="M22011 9234 c0 -11 3 -14 6 -6 3 7 2 16 -1 19 -3 4 -6 -2 -5 -13z"/>
<path d="M18623 9073 c-7 -3 -13 -12 -13 -21 0 -15 2 -15 10 -2 8 13 10 12 10
-2 0 -10 -4 -18 -10 -18 -6 0 -10 -124 -10 -352 0 -330 1 -354 20 -393 34 -70
62 -79 241 -83 183 -4 225 4 268 53 l31 36 0 342 c0 374 -5 448 -26 440 -8 -3
-14 -13 -14 -22 0 -14 2 -14 10 -1 7 11 10 12 10 2 0 -7 -7 -20 -15 -28 -13
-14 -15 -11 -15 20 0 27 -3 34 -15 30 -8 -4 -15 -14 -15 -23 0 -14 2 -14 10
-1 7 11 10 12 10 2 0 -7 -7 -20 -15 -28 -13 -14 -15 -11 -15 20 0 27 -3 34
-15 30 -8 -4 -15 -14 -15 -23 0 -14 2 -14 10 -1 7 11 10 12 10 2 0 -7 -7 -20
-15 -28 -13 -14 -15 -11 -15 20 0 27 -3 34 -15 30 -8 -4 -15 -14 -15 -23 0
-14 2 -14 10 -1 7 11 10 12 10 2 0 -7 -7 -20 -15 -28 -13 -14 -15 -11 -15 20
0 27 -3 34 -15 30 -8 -4 -15 -14 -15 -23 0 -14 2 -14 10 -1 7 11 10 12 10 2 0
-7 -7 -20 -15 -28 -13 -14 -15 -11 -15 20 0 27 -3 34 -15 30 -8 -4 -15 -14
-15 -23 0 -14 2 -14 10 -1 7 11 10 12 10 2 0 -7 -7 -20 -15 -28 -13 -14 -15
-11 -15 20 0 27 -3 34 -15 30 -8 -4 -15 -14 -15 -23 0 -14 2 -14 10 -1 7 11
10 12 10 2 0 -7 -7 -20 -15 -28 -13 -14 -15 -11 -15 20 0 27 -3 34 -15 30 -8
-4 -15 -14 -15 -23 0 -14 2 -14 10 -1 7 11 10 12 10 2 0 -7 -7 -20 -15 -28
-13 -14 -15 -11 -15 20 0 27 -3 34 -15 30 -8 -4 -15 -14 -15 -23 0 -14 2 -14
10 -1 7 11 10 12 10 2 0 -7 -7 -20 -15 -28 -13 -14 -15 -11 -15 20 0 27 -3 34
-15 30 -8 -4 -15 -14 -15 -23 0 -14 2 -14 10 -1 7 11 10 12 10 2 0 -7 -7 -20
-15 -28 -13 -14 -15 -11 -15 20 0 27 -3 34 -15 30 -8 -4 -15 -14 -15 -23 0
-14 2 -14 10 -1 7 11 10 12 10 2 0 -7 -7 -20 -15 -28 -13 -14 -15 -11 -15 20
0 27 -3 34 -15 30 -8 -4 -15 -14 -15 -23 0 -14 2 -14 10 -1 7 11 10 12 10 2 0
-7 -7 -20 -15 -28 -13 -14 -15 -11 -15 20 0 27 -3 34 -15 30 -8 -4 -15 -14
-15 -23 0 -14 2 -14 10 -1 7 11 10 12 10 2 0 -7 -6 -20 -14 -28 -13 -12 -15
-10 -18 19 -2 22 -7 32 -15 30z"/>
<path d="M12502 9014 c-7 -8 -11 -20 -9 -27 4 -8 6 -7 6 3 1 13 2 13 11 0 8
-12 10 -9 10 13 0 31 0 31 -18 11z"/>
<path d="M12542 9014 c-7 -8 -11 -20 -9 -27 4 -8 6 -7 6 3 1 13 2 13 11 0 8
-12 10 -9 10 13 0 31 0 31 -18 11z"/>
<path d="M12582 9014 c-7 -8 -11 -20 -9 -27 4 -8 6 -7 6 3 1 13 2 13 11 0 8
-12 10 -9 10 13 0 31 0 31 -18 11z"/>
<path d="M12622 9014 c-7 -8 -11 -20 -9 -27 4 -8 6 -7 6 3 1 13 2 13 11 0 8
-12 10 -9 10 13 0 31 0 31 -18 11z"/>
<path d="M12662 9014 c-7 -8 -11 -20 -9 -27 4 -8 6 -7 6 3 1 13 2 13 11 0 8
-12 10 -9 10 13 0 31 0 31 -18 11z"/>
<path d="M12702 9014 c-7 -8 -11 -20 -9 -27 4 -8 6 -7 6 3 1 13 2 13 11 0 8
-12 10 -9 10 13 0 31 0 31 -18 11z"/>
<path d="M12742 9014 c-7 -8 -11 -20 -9 -27 4 -8 6 -7 6 3 1 13 2 13 11 0 8
-12 10 -9 10 13 0 31 0 31 -18 11z"/>
<path d="M12782 9014 c-7 -8 -11 -20 -9 -27 4 -8 6 -7 6 3 1 13 2 13 11 0 8
-12 10 -9 10 13 0 31 0 31 -18 11z"/>
<path d="M12822 9014 c-7 -8 -11 -20 -9 -27 4 -8 6 -7 6 3 1 13 2 13 11 0 8
-12 10 -9 10 13 0 31 0 31 -18 11z"/>
<path d="M12862 9014 c-7 -8 -11 -20 -9 -27 4 -8 6 -7 6 3 1 13 2 13 11 0 8
-12 10 -9 10 13 0 31 0 31 -18 11z"/>
<path d="M12902 9014 c-7 -8 -11 -20 -9 -27 4 -8 6 -7 6 3 1 13 2 13 11 0 8
-12 10 -9 10 13 0 31 0 31 -18 11z"/>
<path d="M12942 9014 c-7 -8 -11 -20 -9 -27 4 -8 6 -7 6 3 1 13 2 13 11 0 8
-12 10 -9 10 13 0 31 0 31 -18 11z"/>
<path d="M12982 9014 c-7 -8 -11 -20 -9 -27 4 -8 6 -7 6 3 1 13 2 13 11 0 8
-12 10 -9 10 13 0 31 0 31 -18 11z"/>
<path d="M13022 9014 c-7 -8 -11 -20 -9 -27 4 -8 6 -7 6 3 1 13 2 13 11 0 8
-12 10 -9 10 13 0 31 0 31 -18 11z"/>
<path d="M13062 9014 c-7 -8 -11 -20 -9 -27 4 -8 6 -7 6 3 1 13 2 13 11 0 8
-12 10 -9 10 13 0 31 0 31 -18 11z"/>
<path d="M13102 9014 c-7 -8 -11 -20 -9 -27 4 -8 6 -7 6 3 1 13 2 13 11 0 8
-12 10 -9 10 13 0 31 0 31 -18 11z"/>
<path d="M13142 9014 c-7 -8 -11 -20 -9 -27 4 -8 6 -7 6 3 1 13 2 13 11 0 8
-12 10 -9 10 13 0 31 0 31 -18 11z"/>
<path d="M13182 9014 c-7 -8 -11 -20 -9 -27 4 -8 6 -7 6 3 1 13 2 13 11 0 8
-12 10 -9 10 13 0 31 0 31 -18 11z"/>
<path d="M13222 9014 c-7 -8 -11 -20 -9 -27 4 -8 6 -7 6 3 1 13 2 13 11 0 8
-12 10 -9 10 13 0 31 0 31 -18 11z"/>
<path d="M13262 9014 c-7 -8 -11 -20 -9 -27 4 -8 6 -7 6 3 1 13 2 13 11 0 8
-12 10 -9 10 13 0 31 0 31 -18 11z"/>
<path d="M13302 9014 c-7 -8 -11 -20 -9 -27 4 -8 6 -7 6 3 1 13 2 13 11 0 8
-12 10 -9 10 13 0 31 0 31 -18 11z"/>
<path d="M13342 9014 c-7 -8 -11 -20 -9 -27 4 -8 6 -7 6 3 1 13 2 13 11 0 8
-12 10 -9 10 13 0 31 0 31 -18 11z"/>
<path d="M13382 9014 c-7 -8 -11 -20 -9 -27 4 -8 6 -7 6 3 1 13 2 13 11 0 8
-12 10 -9 10 13 0 31 0 31 -18 11z"/>
<path d="M13422 9014 c-7 -8 -11 -20 -9 -27 4 -8 6 -7 6 3 1 13 2 13 11 0 8
-12 10 -9 10 13 0 31 0 31 -18 11z"/>
<path d="M13462 9014 c-7 -8 -11 -20 -9 -27 4 -8 6 -7 6 3 1 13 2 13 11 0 8
-12 10 -9 10 13 0 31 0 31 -18 11z"/>
<path d="M13502 9014 c-7 -8 -11 -20 -9 -27 4 -8 6 -7 6 3 1 13 2 13 11 0 8
-12 10 -9 10 13 0 31 0 31 -18 11z"/>
<path d="M13542 9014 c-7 -8 -11 -20 -9 -27 4 -8 6 -7 6 3 1 13 2 13 11 0 8
-12 10 -9 10 13 0 31 0 31 -18 11z"/>
<path d="M13582 9014 c-7 -8 -11 -20 -9 -27 4 -8 6 -7 6 3 1 13 2 13 11 0 8
-12 10 -9 10 13 0 31 0 31 -18 11z"/>
<path d="M13622 9014 c-7 -8 -11 -20 -9 -27 4 -8 6 -7 6 3 1 13 2 13 11 0 8
-12 10 -9 10 13 0 31 0 31 -18 11z"/>
<path d="M13662 9014 c-7 -8 -11 -20 -9 -27 4 -8 6 -7 6 3 1 13 2 13 11 0 8
-12 10 -9 10 13 0 31 0 31 -18 11z"/>
<path d="M13702 9014 c-7 -8 -11 -20 -9 -27 4 -8 6 -7 6 3 1 13 2 13 11 0 8
-12 10 -9 10 13 0 31 0 31 -18 11z"/>
<path d="M13742 9014 c-7 -8 -11 -20 -9 -27 4 -8 6 -7 6 3 1 13 2 13 11 0 8
-12 10 -9 10 13 0 31 0 31 -18 11z"/>
<path d="M13782 9014 c-7 -8 -11 -20 -9 -27 4 -8 6 -7 6 3 1 13 2 13 11 0 8
-12 10 -9 10 13 0 31 0 31 -18 11z"/>
<path d="M13822 9014 c-7 -8 -11 -20 -9 -27 4 -8 6 -7 6 3 1 13 2 13 11 0 8
-12 10 -9 10 13 0 31 0 31 -18 11z"/>
<path d="M13862 9014 c-7 -8 -11 -20 -9 -27 4 -8 6 -7 6 3 1 13 2 13 11 0 8
-12 10 -9 10 13 0 31 0 31 -18 11z"/>
<path d="M13902 9014 c-7 -8 -11 -20 -9 -27 4 -8 6 -7 6 3 1 13 2 13 11 0 8
-12 10 -9 10 13 0 31 0 31 -18 11z"/>
<path d="M13942 9014 c-7 -8 -11 -20 -9 -27 4 -8 6 -7 6 3 1 13 2 13 11 0 8
-12 10 -9 10 13 0 31 0 31 -18 11z"/>
<path d="M13982 9014 c-7 -8 -11 -20 -9 -27 4 -8 6 -7 6 3 1 13 2 13 11 0 8
-12 10 -9 10 13 0 31 0 31 -18 11z"/>
<path d="M14022 9014 c-7 -8 -11 -20 -9 -27 4 -8 6 -7 6 3 1 13 2 13 11 0 8
-12 10 -9 10 13 0 31 0 31 -18 11z"/>
<path d="M14062 9014 c-7 -8 -11 -20 -9 -27 4 -8 6 -7 6 3 1 13 2 13 11 0 8
-12 10 -9 10 13 0 31 0 31 -18 11z"/>
<path d="M14102 9014 c-7 -8 -11 -20 -9 -27 4 -8 6 -7 6 3 1 13 2 13 11 0 8
-12 10 -9 10 13 0 31 0 31 -18 11z"/>
<path d="M14142 9014 c-7 -8 -11 -20 -9 -27 4 -8 6 -7 6 3 1 13 2 13 11 0 8
-12 10 -9 10 13 0 31 0 31 -18 11z"/>
<path d="M14182 9014 c-7 -8 -11 -20 -9 -27 4 -8 6 -7 6 3 1 13 2 13 11 0 8
-12 10 -9 10 13 0 31 0 31 -18 11z"/>
<path d="M14222 9014 c-7 -8 -11 -20 -9 -27 4 -8 6 -7 6 3 1 13 2 13 11 0 8
-12 10 -9 10 13 0 31 0 31 -18 11z"/>
<path d="M14262 9014 c-7 -8 -11 -20 -9 -27 4 -8 6 -7 6 3 1 13 2 13 11 0 8
-12 10 -9 10 13 0 31 0 31 -18 11z"/>
<path d="M14302 9014 c-7 -8 -11 -20 -9 -27 4 -8 6 -7 6 3 1 13 2 13 11 0 8
-12 10 -9 10 13 0 31 0 31 -18 11z"/>
<path d="M14342 9014 c-7 -8 -11 -20 -9 -27 4 -8 6 -7 6 3 1 13 2 13 11 0 8
-12 10 -9 10 13 0 31 0 31 -18 11z"/>
<path d="M14382 9014 c-7 -8 -11 -20 -9 -27 4 -8 6 -7 6 3 1 13 2 13 11 0 8
-12 10 -9 10 13 0 31 0 31 -18 11z"/>
<path d="M14422 9014 c-7 -8 -11 -20 -9 -27 4 -8 6 -7 6 3 1 13 2 13 11 0 8
-12 10 -9 10 13 0 31 0 31 -18 11z"/>
<path d="M14462 9014 c-7 -8 -11 -20 -9 -27 4 -8 6 -7 6 3 1 13 2 13 11 0 8
-12 10 -9 10 13 0 31 0 31 -18 11z"/>
<path d="M14502 9014 c-7 -8 -11 -20 -9 -27 4 -8 6 -7 6 3 1 13 2 13 11 0 8
-12 10 -9 10 13 0 31 0 31 -18 11z"/>
<path d="M14542 9014 c-7 -8 -11 -20 -9 -27 4 -8 6 -7 6 3 1 13 2 13 11 0 8
-12 10 -9 10 13 0 31 0 31 -18 11z"/>
<path d="M14582 9014 c-7 -8 -11 -20 -9 -27 4 -8 6 -7 6 3 1 13 2 13 11 0 8
-12 10 -9 10 13 0 31 0 31 -18 11z"/>
<path d="M14622 9014 c-7 -8 -11 -20 -9 -27 4 -8 6 -7 6 3 1 13 2 13 11 0 8
-12 10 -9 10 13 0 31 0 31 -18 11z"/>
<path d="M14662 9014 c-7 -8 -11 -20 -9 -27 4 -8 6 -7 6 3 1 13 2 13 11 0 8
-12 10 -9 10 13 0 31 0 31 -18 11z"/>
<path d="M14702 9014 c-7 -8 -11 -20 -9 -27 4 -8 6 -7 6 3 1 13 2 13 11 0 8
-12 10 -9 10 13 0 31 0 31 -18 11z"/>
<path d="M14742 9014 c-7 -8 -11 -20 -9 -27 4 -8 6 -7 6 3 1 13 2 13 11 0 8
-12 10 -9 10 13 0 31 0 31 -18 11z"/>
<path d="M14782 9014 c-7 -8 -11 -20 -9 -27 4 -8 6 -7 6 3 1 13 2 13 11 0 8
-12 10 -9 10 13 0 31 0 31 -18 11z"/>
<path d="M14822 9014 c-7 -8 -11 -20 -9 -27 4 -8 6 -7 6 3 1 13 2 13 11 0 8
-12 10 -9 10 13 0 31 0 31 -18 11z"/>
<path d="M14862 9014 c-7 -8 -11 -20 -9 -27 4 -8 6 -7 6 3 1 13 2 13 11 0 8
-12 10 -9 10 13 0 31 0 31 -18 11z"/>
<path d="M14902 9014 c-7 -8 -11 -20 -9 -27 4 -8 6 -7 6 3 1 13 2 13 11 0 8
-12 10 -9 10 13 0 31 0 31 -18 11z"/>
<path d="M14942 9014 c-7 -8 -11 -20 -9 -27 4 -8 6 -7 6 3 1 13 2 13 11 0 8
-12 10 -9 10 13 0 31 0 31 -18 11z"/>
<path d="M14982 9014 c-7 -8 -11 -20 -9 -27 4 -8 6 -7 6 3 1 13 2 13 11 0 8
-12 10 -9 10 13 0 31 0 31 -18 11z"/>
<path d="M15022 9014 c-7 -8 -11 -20 -9 -27 4 -8 6 -7 6 3 1 13 2 13 11 0 8
-12 10 -9 10 13 0 31 0 31 -18 11z"/>
<path d="M15062 9014 c-7 -8 -11 -20 -9 -27 4 -8 6 -7 6 3 1 13 2 13 11 0 8
-12 10 -9 10 13 0 31 0 31 -18 11z"/>
<path d="M15102 9014 c-7 -8 -11 -20 -9 -27 4 -8 6 -7 6 3 1 13 2 13 11 0 8
-12 10 -9 10 13 0 31 0 31 -18 11z"/>
<path d="M15142 9014 c-7 -8 -11 -20 -9 -27 4 -8 6 -7 6 3 1 13 2 13 11 0 8
-12 10 -9 10 13 0 31 0 31 -18 11z"/>
<path d="M15182 9014 c-7 -8 -11 -20 -9 -27 4 -8 6 -7 6 3 1 13 2 13 11 0 8
-12 10 -9 10 13 0 31 0 31 -18 11z"/>
<path d="M15222 9014 c-7 -8 -11 -20 -9 -27 4 -8 6 -7 6 3 1 13 2 13 11 0 8
-12 10 -9 10 13 0 31 0 31 -18 11z"/>
<path d="M15262 9014 c-7 -8 -11 -20 -9 -27 4 -8 6 -7 6 3 1 13 2 13 11 0 8
-12 10 -9 10 13 0 31 0 31 -18 11z"/>
<path d="M15302 9014 c-7 -8 -11 -20 -9 -27 4 -8 6 -7 6 3 1 13 2 13 11 0 8
-12 10 -9 10 13 0 31 0 31 -18 11z"/>
<path d="M15342 9014 c-7 -8 -11 -20 -9 -27 4 -8 6 -7 6 3 1 13 2 13 11 0 8
-12 10 -9 10 13 0 31 0 31 -18 11z"/>
<path d="M15382 9014 c-7 -8 -11 -20 -9 -27 4 -8 6 -7 6 3 1 13 2 13 11 0 8
-12 10 -9 10 13 0 31 0 31 -18 11z"/>
<path d="M15422 9014 c-7 -8 -11 -20 -9 -27 4 -8 6 -7 6 3 1 13 2 13 11 0 8
-12 10 -9 10 13 0 31 0 31 -18 11z"/>
<path d="M15462 9014 c-7 -8 -11 -20 -9 -27 4 -8 6 -7 6 3 1 13 2 13 11 0 8
-12 10 -9 10 13 0 31 0 31 -18 11z"/>
<path d="M12507 8959 c-5 -16 56 -135 116 -224 244 -361 624 -615 1054 -702
137 -28 491 -25 629 5 424 92 797 340 1026 681 76 114 128 211 128 238 0 15
-2 16 -10 3 -9 -13 -10 -13 -10 0 0 13 -1 13 -10 0 -9 -13 -10 -13 -10 0 0 13
-1 13 -10 0 -9 -13 -10 -13 -10 0 0 13 -1 13 -10 0 -9 -13 -10 -13 -10 0 0 13
-1 13 -10 0 -9 -13 -10 -13 -10 0 0 13 -1 13 -10 0 -9 -13 -10 -13 -10 0 0 13
-1 13 -10 0 -9 -13 -10 -13 -10 0 0 13 -1 13 -10 0 -9 -13 -10 -13 -10 0 0 13
-1 13 -10 0 -9 -13 -10 -13 -10 0 0 13 -1 13 -10 0 -9 -13 -10 -13 -10 0 0 13
-1 13 -10 0 -9 -13 -10 -13 -10 0 0 13 -1 13 -10 0 -9 -13 -10 -13 -10 0 0 13
-1 13 -10 0 -9 -13 -10 -13 -10 0 0 13 -1 13 -10 0 -9 -13 -10 -13 -10 0 0 13
-1 13 -10 0 -9 -13 -10 -13 -10 0 0 13 -1 13 -10 0 -9 -13 -10 -13 -10 0 0 13
-1 13 -10 0 -9 -13 -10 -13 -10 0 0 13 -1 13 -10 0 -9 -13 -10 -13 -10 0 0 12
-2 13 -9 1 -7 -11 -9 -11 -14 0 -4 11 -6 11 -6 -1 -1 -13 -2 -13 -11 0 -9 13
-10 13 -10 0 0 -13 -1 -13 -10 0 -9 13 -10 13 -10 0 0 -13 -1 -13 -10 0 -9 13
-10 13 -10 0 0 -13 -1 -13 -10 0 -9 13 -10 13 -10 0 0 -13 -1 -13 -10 0 -9 13
-10 13 -10 0 0 -13 -1 -13 -10 0 -9 13 -10 13 -10 0 0 -13 -1 -13 -10 0 -9 13
-10 13 -10 0 0 -13 -1 -13 -10 0 -9 13 -10 13 -10 0 0 -13 -1 -13 -10 0 -9 13
-10 13 -10 0 0 -13 -1 -13 -10 0 -9 13 -10 13 -10 0 0 -13 -1 -13 -10 0 -9 13
-10 13 -10 0 0 -13 -1 -13 -10 0 -9 13 -10 13 -10 0 0 -13 -1 -13 -10 0 -9 13
-10 13 -10 0 0 -13 -1 -13 -10 0 -9 13 -10 13 -10 0 0 -13 -1 -13 -10 0 -9 13
-10 13 -10 0 0 -13 -1 -13 -10 0 -9 13 -10 13 -10 0 0 -13 -1 -13 -10 0 -9 13
-10 13 -10 0 0 -13 -1 -13 -10 0 -9 13 -10 13 -10 0 0 -13 -1 -13 -10 0 -9 13
-10 13 -10 0 0 -13 -1 -13 -10 0 -9 13 -10 13 -10 0 0 -13 -1 -13 -10 0 -9 13
-10 13 -10 0 0 -13 -1 -13 -10 0 -9 13 -10 13 -10 0 0 -13 -1 -13 -10 0 -9 13
-10 13 -10 0 0 -13 -1 -13 -10 0 -9 13 -10 13 -10 0 0 -13 -1 -13 -10 0 -9 13
-10 13 -10 0 0 -13 -1 -13 -10 0 -9 13 -10 13 -10 0 0 -13 -1 -13 -10 0 -9 13
-10 13 -10 0 0 -13 -1 -13 -10 0 -9 13 -10 13 -10 0 0 -13 -1 -13 -10 0 -9 13
-10 13 -10 0 0 -13 -1 -13 -10 0 -9 13 -10 13 -10 0 0 -13 -1 -13 -10 0 -9 13
-10 13 -10 0 0 -13 -1 -13 -10 0 -9 13 -10 13 -10 0 0 -13 -1 -13 -10 0 -9 13
-10 13 -10 0 0 -13 -1 -13 -10 0 -9 13 -10 13 -10 0 0 -13 -1 -13 -10 0 -9 13
-10 13 -10 0 0 -13 -1 -13 -10 0 -9 13 -10 13 -10 0 0 -13 -1 -13 -10 0 -9 13
-10 13 -10 0 0 -13 -1 -13 -10 0 -9 13 -10 13 -10 0 0 -13 -1 -13 -10 0 -9 13
-10 13 -10 0 0 -13 -1 -13 -10 0 -9 13 -10 13 -10 0 0 -13 -1 -13 -10 0 -9 13
-10 13 -10 0 0 -13 -1 -13 -10 0 -9 13 -10 13 -10 0 0 -13 -1 -13 -10 0 -9 13
-10 13 -10 0 0 -13 -1 -13 -10 0 -9 13 -10 13 -10 0 0 -13 -1 -13 -10 0 -9 13
-10 13 -10 0 0 -13 -1 -13 -10 0 -9 13 -10 13 -10 0 0 -13 -1 -13 -10 0 -9 13
-10 13 -10 0 0 -13 -1 -13 -10 0 -9 13 -10 13 -10 0 0 -13 -1 -13 -10 0 -9 13
-10 13 -10 0 0 -13 -1 -13 -10 0 -9 13 -10 13 -10 0 0 -13 -1 -13 -10 0 -9 13
-10 13 -10 0 0 -13 -1 -13 -10 0 -9 13 -10 13 -10 0 0 -13 -1 -13 -10 0 -9 13
-10 13 -10 0 0 -13 -1 -13 -10 0 -9 13 -10 13 -10 0 0 -13 -1 -13 -10 0 -9 13
-10 13 -10 0 0 -13 -1 -13 -10 0 -9 13 -10 13 -10 0 0 -13 -1 -13 -10 0 -9 13
-10 13 -10 0 0 -13 -1 -13 -10 0 -9 13 -10 13 -10 0 0 -13 -1 -13 -10 0 -9 13
-10 13 -10 0 0 -13 -1 -13 -10 0 -9 13 -10 13 -10 0 0 -13 -1 -13 -10 0 -9 13
-10 13 -10 0 0 -13 -1 -13 -10 0 -9 13 -10 13 -10 0 0 -13 -1 -13 -10 0 -9 13
-10 13 -10 0 0 -13 -1 -13 -10 0 -9 13 -10 13 -10 0 0 -13 -1 -13 -10 0 -9 13
-10 13 -10 0 0 -13 -1 -13 -10 0 -9 13 -10 13 -10 0 0 -13 -1 -13 -10 0 -9 13
-10 13 -10 0 0 -13 -1 -13 -10 0 -9 13 -10 13 -10 0 0 -13 -1 -13 -10 0 -9 13
-10 13 -10 0 0 -13 -1 -13 -10 0 -9 13 -10 13 -10 0 0 -13 -1 -13 -10 0 -9 13
-10 13 -10 0 0 -13 -1 -13 -10 0 -9 13 -10 13 -10 0 0 -13 -1 -13 -10 0 -9 13
-10 13 -10 0 0 -13 -1 -13 -10 0 -9 13 -10 13 -10 0 0 -13 -1 -13 -10 0 -9 13
-10 13 -10 0 0 -13 -1 -13 -10 0 -9 13 -10 13 -10 0 0 -13 -1 -13 -10 0 -9 13
-10 13 -10 0 0 -13 -1 -13 -10 0 -9 13 -10 13 -10 0 0 -13 -1 -13 -10 0 -9 13
-10 13 -10 0 0 -13 -1 -13 -10 0 -9 13 -10 13 -10 0 0 -13 -1 -13 -10 0 -9 13
-10 13 -10 0 0 -13 -1 -13 -10 0 -9 13 -10 13 -10 0 0 -13 -1 -13 -10 0 -9 13
-10 13 -10 0 0 -13 -1 -13 -10 0 -9 13 -10 13 -10 0 0 -13 -1 -13 -10 0 -9 13
-10 13 -10 0 0 -13 -1 -13 -10 0 -9 13 -10 13 -10 0 0 -13 -1 -13 -10 0 -9 13
-10 13 -10 0 0 -13 -1 -13 -10 0 -9 13 -10 13 -10 0 0 -13 -1 -13 -10 0 -9 13
-10 13 -10 0 0 -13 -1 -13 -10 0 -9 13 -10 13 -10 0 0 -13 -1 -13 -10 0 -9 13
-10 13 -10 0 0 -13 -1 -13 -10 0 -9 13 -10 13 -10 0 0 -13 -1 -13 -10 0 -9 13
-10 13 -10 0 0 -13 -1 -13 -10 0 -9 13 -10 13 -10 0 0 -13 -1 -13 -10 0 -9 13
-10 13 -10 0 0 -13 -1 -13 -10 0 -9 13 -10 13 -10 0 0 -13 -1 -13 -10 0 -9 13
-10 13 -10 0 0 -13 -1 -13 -10 0 -9 13 -10 13 -10 0 0 -13 -1 -13 -10 0 -9 13
-10 13 -10 0 0 -13 -1 -13 -10 0 -9 13 -10 13 -10 0 0 -13 -1 -13 -10 0 -9 13
-10 13 -10 0 0 -13 -1 -13 -10 0 -9 13 -10 13 -10 0 0 -13 -1 -13 -10 0 -9 13
-10 13 -10 0 0 -13 -1 -13 -10 0 -9 13 -10 13 -10 0 0 -13 -1 -13 -10 0 -9 13
-10 13 -10 0 0 -13 -1 -13 -10 0 -9 13 -10 13 -10 0 0 -13 -1 -13 -10 0 -9 13
-10 13 -10 0 0 -13 -1 -13 -10 0 -9 13 -10 13 -10 0 0 -13 -1 -13 -10 0 -9 13
-10 13 -10 0 0 -13 -1 -13 -10 0 -9 13 -10 13 -10 0 0 -13 -1 -13 -10 0 -9 13
-10 13 -10 0 0 -13 -1 -13 -10 0 -9 13 -10 13 -10 0 0 -13 -1 -13 -10 0 -9 13
-10 13 -10 0 0 -13 -1 -13 -10 0 -9 13 -10 13 -10 0 0 -13 -1 -13 -10 0 -9 13
-10 13 -10 0 0 -13 -1 -13 -10 0 -9 13 -10 13 -10 0 0 -13 -1 -13 -10 0 -9 13
-10 13 -10 0 0 -13 -1 -13 -10 0 -9 13 -10 13 -10 0 0 -13 -1 -13 -10 0 -9 13
-10 13 -10 0 0 -13 -1 -13 -10 0 -9 13 -10 13 -10 0 0 -13 -1 -13 -10 0 -9 13
-10 13 -10 0 0 -13 -1 -13 -10 0 -9 13 -10 13 -10 0 0 -13 -1 -13 -10 0 -9 13
-10 13 -10 0 0 -13 -1 -13 -10 0 -9 13 -10 13 -10 0 0 -13 -1 -13 -10 0 -9 13
-10 13 -10 0 0 -13 -1 -13 -10 0 -9 13 -10 13 -10 0 0 -13 -1 -13 -10 0 -9 13
-10 13 -10 0 0 -12 -2 -13 -9 -1 -7 11 -9 11 -14 0z"/>
<path d="M20047 8781 c-4 -18 -7 -136 -7 -262 l0 -228 31 -36 c43 -49 85 -57
268 -53 182 4 211 13 242 81 17 38 18 67 18 287 -1 138 -4 234 -9 220 l-8 -25
-2 25 -2 25 -8 -25 -8 -25 -2 25 -2 25 -8 -25 -8 -25 -2 25 -2 25 -8 -25 -8
-25 -2 25 -2 25 -8 -25 -8 -25 -2 25 -2 25 -8 -25 -8 -25 -2 25 -2 25 -8 -25
-8 -25 -2 25 -2 25 -8 -25 -8 -25 -2 25 -2 25 -8 -25 -8 -25 -2 25 -2 25 -8
-25 -8 -25 -2 25 -2 25 -8 -25 -8 -25 -2 25 -2 25 -8 -25 -8 -25 -2 25 -2 25
-8 -25 -8 -25 -2 25 -2 25 -8 -25 -8 -25 -2 25 -2 25 -8 -25 -8 -25 -2 25 -2
25 -8 -25 -8 -25 -2 25 -2 25 -8 -25 -8 -25 -2 25 -2 25 -8 -25 -8 -25 -2 25
-2 25 -8 -25 -8 -25 -2 25 -2 25 -8 -25 -8 -25 -2 25 -2 25 -8 -25 -8 -25 -2
25 -2 25 -8 -25 -8 -25 -2 25 -2 25 -8 -25 -8 -25 -2 25 -2 25 -8 -25 -8 -25
-2 25 -2 25 -8 -25 -8 -25 -2 25 -2 25 -8 -25 -8 -25 -2 25 -2 25 -7 -25 -8
-25 -4 25 c-4 23 -5 22 -12 -9z"/>
<path d="M17191 8505 c-1 -222 5 -244 79 -282 40 -21 58 -23 195 -23 172 0
209 8 251 51 l29 30 3 177 c2 102 -1 188 -7 202 -8 22 -10 22 -11 5 -2 -17 -3
-16 -10 5 l-8 25 -2 -25 c-1 -23 -2 -23 -10 -5 l-9 20 -1 -20 c-2 -17 -3 -16
-10 5 l-8 25 -2 -25 c-1 -23 -2 -23 -10 -5 l-9 20 -1 -20 c-2 -17 -3 -16 -10
5 l-8 25 -2 -25 c-1 -23 -2 -23 -10 -5 l-9 20 -1 -20 c-2 -17 -3 -16 -10 5
l-8 25 -2 -25 c-1 -23 -2 -23 -10 -5 l-9 20 -1 -20 c-2 -17 -3 -16 -10 5 l-8
25 -2 -25 c-1 -23 -2 -23 -10 -5 l-9 20 -1 -20 c-2 -17 -3 -16 -10 5 l-8 25
-2 -25 c-1 -23 -2 -23 -10 -5 l-9 20 -1 -20 c-2 -17 -3 -16 -10 5 l-8 25 -2
-25 c-1 -23 -2 -23 -10 -5 l-9 20 -1 -20 c-2 -17 -3 -16 -10 5 l-8 25 -2 -25
c-1 -23 -2 -23 -10 -5 l-9 20 -1 -20 c-2 -17 -3 -16 -10 5 l-8 25 -2 -25 c-1
-23 -2 -23 -10 -5 l-9 20 -1 -20 c-2 -17 -3 -16 -10 5 l-8 25 -2 -25 c-1 -23
-2 -23 -10 -5 l-9 20 -1 -20 c-2 -17 -3 -16 -10 5 l-8 25 -2 -25 c-1 -23 -2
-23 -10 -5 l-9 20 -1 -20 c-2 -17 -3 -16 -10 5 l-8 25 -2 -25 c-1 -23 -2 -23
-10 -5 l-9 20 -1 -20 c-2 -17 -3 -16 -10 5 l-8 25 -2 -25 c-1 -23 -2 -23 -10
-5 l-9 20 -1 -20 c-2 -17 -3 -16 -10 5 -5 15 -8 -54 -9 -165z"/>
<path d="M4296 6907 c-23 -23 -24 -28 -25 -218 -1 -214 4 -241 62 -283 l28
-21 2351 -3 c2319 -2 2350 -2 2394 18 36 15 49 28 65 66 19 43 21 62 17 236
-3 185 -4 191 -27 209 -23 19 -85 19 -2433 19 l-2409 0 -23 -23z"/>
<path d="M4313 5830 c-12 -5 -26 -18 -32 -29 -8 -13 -10 -461 -8 -1449 2
-1429 2 -1431 23 -1459 11 -15 36 -36 55 -46 32 -16 161 -17 2389 -15 2258 3
2356 4 2382 21 15 10 35 30 45 45 17 26 18 93 20 1450 3 1540 5 1471 -49 1486
-37 9 -4800 6 -4825 -4z"/>
<path d="M27664 4981 c-2 -2 -4 -17 -4 -32 0 -38 43 -86 88 -99 53 -14 548
-12 592 3 38 13 80 67 80 103 0 13 -3 24 -7 25 -30 3 -746 3 -749 0z"/>
<path d="M20271 4474 c0 -11 3 -14 6 -6 3 7 2 16 -1 19 -3 4 -6 -2 -5 -13z"/>
<path d="M20311 4474 c0 -11 3 -14 6 -6 3 7 2 16 -1 19 -3 4 -6 -2 -5 -13z"/>
<path d="M20355 4115 c0 -209 1 -296 2 -193 2 103 2 274 0 380 -1 106 -2 22
-2 -187z"/>
<path d="M20395 4115 c0 -209 1 -296 2 -193 2 103 2 274 0 380 -1 106 -2 22
-2 -187z"/>
<path d="M20411 4474 c0 -11 3 -14 6 -6 3 7 2 16 -1 19 -3 4 -6 -2 -5 -13z"/>
<path d="M20435 4115 c0 -209 1 -296 2 -193 2 103 2 274 0 380 -1 106 -2 22
-2 -187z"/>
<path d="M20455 4115 c0 -209 1 -296 2 -193 2 103 2 274 0 380 -1 106 -2 22
-2 -187z"/>
<path d="M20475 4115 c0 -209 1 -296 2 -193 2 103 2 274 0 380 -1 106 -2 22
-2 -187z"/>
<path d="M20491 4118 c-1 -330 1 -378 14 -378 13 0 15 49 15 378 0 215 -4 371
-9 363 -7 -11 -9 -11 -14 0 -3 8 -6 -156 -6 -363z m16 320 c-3 -8 -6 -5 -6 6
-1 11 2 17 5 13 3 -3 4 -12 1 -19z m0 -40 c-3 -8 -6 -5 -6 6 -1 11 2 17 5 13
3 -3 4 -12 1 -19z m0 -40 c-3 -8 -6 -5 -6 6 -1 11 2 17 5 13 3 -3 4 -12 1 -19z
m0 -40 c-3 -8 -6 -5 -6 6 -1 11 2 17 5 13 3 -3 4 -12 1 -19z m0 -40 c-3 -8 -6
-5 -6 6 -1 11 2 17 5 13 3 -3 4 -12 1 -19z m0 -40 c-3 -8 -6 -5 -6 6 -1 11 2
17 5 13 3 -3 4 -12 1 -19z m0 -40 c-3 -8 -6 -5 -6 6 -1 11 2 17 5 13 3 -3 4
-12 1 -19z m0 -40 c-3 -8 -6 -5 -6 6 -1 11 2 17 5 13 3 -3 4 -12 1 -19z m0
-40 c-3 -8 -6 -5 -6 6 -1 11 2 17 5 13 3 -3 4 -12 1 -19z m0 -40 c-3 -8 -6 -5
-6 6 -1 11 2 17 5 13 3 -3 4 -12 1 -19z m0 -40 c-3 -8 -6 -5 -6 6 -1 11 2 17
5 13 3 -3 4 -12 1 -19z m0 -40 c-3 -8 -6 -5 -6 6 -1 11 2 17 5 13 3 -3 4 -12
1 -19z m0 -40 c-3 -8 -6 -5 -6 6 -1 11 2 17 5 13 3 -3 4 -12 1 -19z m0 -40
c-3 -8 -6 -5 -6 6 -1 11 2 17 5 13 3 -3 4 -12 1 -19z m0 -40 c-3 -8 -6 -5 -6
6 -1 11 2 17 5 13 3 -3 4 -12 1 -19z m0 -40 c-3 -8 -6 -5 -6 6 -1 11 2 17 5
13 3 -3 4 -12 1 -19z m0 -40 c-3 -8 -6 -5 -6 6 -1 11 2 17 5 13 3 -3 4 -12 1
-19z m0 -40 c-3 -8 -6 -5 -6 6 -1 11 2 17 5 13 3 -3 4 -12 1 -19z"/>
<path d="M20530 4115 c0 -327 2 -375 15 -375 13 0 15 48 15 375 0 327 -2 375
-15 375 -13 0 -15 -48 -15 -375z"/>
<path d="M20570 4115 l0 -375 1120 0 1120 0 0 375 0 375 -1120 0 -1120 0 0
-375z"/>
<path d="M20271 4434 c0 -11 3 -14 6 -6 3 7 2 16 -1 19 -3 4 -6 -2 -5 -13z"/>
<path d="M20311 4434 c0 -11 3 -14 6 -6 3 7 2 16 -1 19 -3 4 -6 -2 -5 -13z"/>
<path d="M20411 4434 c0 -11 3 -14 6 -6 3 7 2 16 -1 19 -3 4 -6 -2 -5 -13z"/>
<path d="M20271 4394 c0 -11 3 -14 6 -6 3 7 2 16 -1 19 -3 4 -6 -2 -5 -13z"/>
<path d="M20311 4394 c0 -11 3 -14 6 -6 3 7 2 16 -1 19 -3 4 -6 -2 -5 -13z"/>
<path d="M20411 4394 c0 -11 3 -14 6 -6 3 7 2 16 -1 19 -3 4 -6 -2 -5 -13z"/>
<path d="M20271 4354 c0 -11 3 -14 6 -6 3 7 2 16 -1 19 -3 4 -6 -2 -5 -13z"/>
<path d="M20311 4354 c0 -11 3 -14 6 -6 3 7 2 16 -1 19 -3 4 -6 -2 -5 -13z"/>
<path d="M20411 4354 c0 -11 3 -14 6 -6 3 7 2 16 -1 19 -3 4 -6 -2 -5 -13z"/>
<path d="M20271 4314 c0 -11 3 -14 6 -6 3 7 2 16 -1 19 -3 4 -6 -2 -5 -13z"/>
<path d="M20311 4314 c0 -11 3 -14 6 -6 3 7 2 16 -1 19 -3 4 -6 -2 -5 -13z"/>
<path d="M20411 4314 c0 -11 3 -14 6 -6 3 7 2 16 -1 19 -3 4 -6 -2 -5 -13z"/>
<path d="M20271 4274 c0 -11 3 -14 6 -6 3 7 2 16 -1 19 -3 4 -6 -2 -5 -13z"/>
<path d="M20311 4274 c0 -11 3 -14 6 -6 3 7 2 16 -1 19 -3 4 -6 -2 -5 -13z"/>
<path d="M20411 4274 c0 -11 3 -14 6 -6 3 7 2 16 -1 19 -3 4 -6 -2 -5 -13z"/>
<path d="M20271 4234 c0 -11 3 -14 6 -6 3 7 2 16 -1 19 -3 4 -6 -2 -5 -13z"/>
<path d="M20311 4234 c0 -11 3 -14 6 -6 3 7 2 16 -1 19 -3 4 -6 -2 -5 -13z"/>
<path d="M20411 4234 c0 -11 3 -14 6 -6 3 7 2 16 -1 19 -3 4 -6 -2 -5 -13z"/>
<path d="M20271 4194 c0 -11 3 -14 6 -6 3 7 2 16 -1 19 -3 4 -6 -2 -5 -13z"/>
<path d="M20311 4194 c0 -11 3 -14 6 -6 3 7 2 16 -1 19 -3 4 -6 -2 -5 -13z"/>
<path d="M20411 4194 c0 -11 3 -14 6 -6 3 7 2 16 -1 19 -3 4 -6 -2 -5 -13z"/>
<path d="M20271 4154 c0 -11 3 -14 6 -6 3 7 2 16 -1 19 -3 4 -6 -2 -5 -13z"/>
<path d="M20311 4154 c0 -11 3 -14 6 -6 3 7 2 16 -1 19 -3 4 -6 -2 -5 -13z"/>
<path d="M20411 4154 c0 -11 3 -14 6 -6 3 7 2 16 -1 19 -3 4 -6 -2 -5 -13z"/>
<path d="M20271 4114 c0 -11 3 -14 6 -6 3 7 2 16 -1 19 -3 4 -6 -2 -5 -13z"/>
<path d="M20311 4114 c0 -11 3 -14 6 -6 3 7 2 16 -1 19 -3 4 -6 -2 -5 -13z"/>
<path d="M20411 4114 c0 -11 3 -14 6 -6 3 7 2 16 -1 19 -3 4 -6 -2 -5 -13z"/>
<path d="M20271 4074 c0 -11 3 -14 6 -6 3 7 2 16 -1 19 -3 4 -6 -2 -5 -13z"/>
<path d="M20311 4074 c0 -11 3 -14 6 -6 3 7 2 16 -1 19 -3 4 -6 -2 -5 -13z"/>
<path d="M20411 4074 c0 -11 3 -14 6 -6 3 7 2 16 -1 19 -3 4 -6 -2 -5 -13z"/>
<path d="M20271 4034 c0 -11 3 -14 6 -6 3 7 2 16 -1 19 -3 4 -6 -2 -5 -13z"/>
<path d="M20311 4034 c0 -11 3 -14 6 -6 3 7 2 16 -1 19 -3 4 -6 -2 -5 -13z"/>
<path d="M20411 4034 c0 -11 3 -14 6 -6 3 7 2 16 -1 19 -3 4 -6 -2 -5 -13z"/>
<path d="M20271 3994 c0 -11 3 -14 6 -6 3 7 2 16 -1 19 -3 4 -6 -2 -5 -13z"/>
<path d="M20311 3994 c0 -11 3 -14 6 -6 3 7 2 16 -1 19 -3 4 -6 -2 -5 -13z"/>
<path d="M20411 3994 c0 -11 3 -14 6 -6 3 7 2 16 -1 19 -3 4 -6 -2 -5 -13z"/>
<path d="M20271 3954 c0 -11 3 -14 6 -6 3 7 2 16 -1 19 -3 4 -6 -2 -5 -13z"/>
<path d="M20311 3954 c0 -11 3 -14 6 -6 3 7 2 16 -1 19 -3 4 -6 -2 -5 -13z"/>
<path d="M20411 3954 c0 -11 3 -14 6 -6 3 7 2 16 -1 19 -3 4 -6 -2 -5 -13z"/>
<path d="M20271 3914 c0 -11 3 -14 6 -6 3 7 2 16 -1 19 -3 4 -6 -2 -5 -13z"/>
<path d="M20311 3914 c0 -11 3 -14 6 -6 3 7 2 16 -1 19 -3 4 -6 -2 -5 -13z"/>
<path d="M20411 3914 c0 -11 3 -14 6 -6 3 7 2 16 -1 19 -3 4 -6 -2 -5 -13z"/>
<path d="M20271 3874 c0 -11 3 -14 6 -6 3 7 2 16 -1 19 -3 4 -6 -2 -5 -13z"/>
<path d="M20311 3874 c0 -11 3 -14 6 -6 3 7 2 16 -1 19 -3 4 -6 -2 -5 -13z"/>
<path d="M20411 3874 c0 -11 3 -14 6 -6 3 7 2 16 -1 19 -3 4 -6 -2 -5 -13z"/>
<path d="M20271 3834 c0 -11 3 -14 6 -6 3 7 2 16 -1 19 -3 4 -6 -2 -5 -13z"/>
<path d="M20311 3834 c0 -11 3 -14 6 -6 3 7 2 16 -1 19 -3 4 -6 -2 -5 -13z"/>
<path d="M20411 3834 c0 -11 3 -14 6 -6 3 7 2 16 -1 19 -3 4 -6 -2 -5 -13z"/>
<path d="M20271 3794 c0 -11 3 -14 6 -6 3 7 2 16 -1 19 -3 4 -6 -2 -5 -13z"/>
<path d="M20311 3794 c0 -11 3 -14 6 -6 3 7 2 16 -1 19 -3 4 -6 -2 -5 -13z"/>
<path d="M20411 3794 c0 -11 3 -14 6 -6 3 7 2 16 -1 19 -3 4 -6 -2 -5 -13z"/>
<path d="M20271 3754 c0 -11 3 -14 6 -6 3 7 2 16 -1 19 -3 4 -6 -2 -5 -13z"/>
<path d="M20311 3754 c0 -11 3 -14 6 -6 3 7 2 16 -1 19 -3 4 -6 -2 -5 -13z"/>
<path d="M20411 3754 c0 -11 3 -14 6 -6 3 7 2 16 -1 19 -3 4 -6 -2 -5 -13z"/>
<path d="M27666 3665 c-13 -35 -6 -155 10 -181 34 -52 50 -54 364 -54 320 0
335 3 365 60 17 33 22 207 5 180 -9 -13 -10 -13 -10 0 0 13 -1 13 -10 0 -9
-13 -10 -13 -10 0 0 13 -1 13 -10 0 -9 -13 -10 -13 -10 0 0 13 -1 13 -10 0 -9
-13 -10 -13 -10 0 0 13 -1 13 -10 0 -9 -13 -10 -13 -10 0 0 13 -1 13 -10 0 -9
-13 -10 -13 -10 0 0 13 -1 13 -10 0 -9 -13 -10 -13 -10 0 0 13 -1 13 -10 0 -9
-13 -10 -13 -10 0 0 13 -1 13 -10 0 -9 -13 -10 -13 -10 0 0 13 -1 13 -10 0 -9
-13 -10 -13 -10 0 0 13 -1 13 -10 0 -9 -13 -10 -13 -10 0 0 13 -1 13 -10 0 -9
-13 -10 -13 -10 0 0 13 -1 13 -10 0 -9 -13 -10 -13 -10 0 0 13 -1 13 -10 0 -9
-13 -10 -13 -10 0 0 13 -1 13 -10 0 -9 -13 -10 -13 -10 0 0 13 -1 13 -10 0 -9
-13 -10 -13 -10 0 0 13 -1 13 -10 0 -9 -13 -10 -13 -10 0 0 13 -1 13 -10 0 -9
-13 -10 -13 -10 0 0 13 -1 13 -10 0 -9 -13 -10 -13 -10 0 0 13 -1 13 -10 0 -9
-13 -10 -13 -10 0 0 13 -1 13 -10 0 -9 -13 -10 -13 -10 0 0 13 -1 13 -10 0 -9
-13 -10 -13 -10 0 0 13 -1 13 -10 0 -9 -13 -10 -13 -10 0 0 13 -1 13 -10 0 -9
-13 -10 -13 -10 0 0 13 -1 13 -10 0 -9 -13 -10 -13 -10 0 0 13 -1 13 -10 0 -9
-13 -10 -13 -10 0 0 13 -1 13 -10 0 -9 -13 -10 -13 -10 0 0 13 -1 13 -10 0 -9
-13 -10 -13 -10 0 0 13 -1 13 -10 0 -9 -13 -10 -13 -10 0 0 13 -1 13 -10 0 -9
-13 -10 -13 -10 0 0 13 -1 13 -10 0 -9 -13 -10 -13 -10 0 0 13 -1 13 -10 0 -9
-13 -10 -13 -10 0 0 13 -1 13 -10 0 -9 -13 -10 -13 -10 0 0 13 -1 13 -10 0 -9
-13 -10 -13 -10 0 0 13 -1 13 -10 0 -9 -13 -10 -13 -10 0 0 12 -2 13 -9 1 -7
-11 -9 -11 -14 0 -4 11 -6 11 -6 -1 -1 -12 -3 -12 -10 -2 -7 11 -10 10 -15 -3z"/>
<path d="M5642 1983 l3 -298 268 0 267 0 0 297 0 298 -270 0 -270 0 2 -297z"/>
<path d="M8915 1988 c4 -161 9 -295 10 -298 2 -3 119 -5 262 -5 l258 0 6 65
c4 36 7 170 8 298 l1 232 -276 0 -276 0 7 -292z"/>
<path d="M23910 1228 l0 -118 2183 0 c2122 0 2183 1 2224 19 58 27 96 86 101
159 l4 57 -2256 0 -2256 0 0 -117z"/>
</g>
</svg>
