<?xml version="1.0" standalone="no"?>
<!DOCTYPE svg PUBLIC "-//W3C//DTD SVG 20010904//EN"
 "http://www.w3.org/TR/2001/REC-SVG-20010904/DTD/svg10.dtd">
<svg version="1.0" xmlns="http://www.w3.org/2000/svg"
 width="3400.000000pt" height="2266.000000pt" viewBox="0 0 3400.000000 2266.000000"
 preserveAspectRatio="xMidYMid meet">

<g transform="translate(0.000000,2266.000000) scale(0.100000,-0.100000)"
fill="#000000" stroke="none">
<path d="M7110 20073 c-36 -14 -72 -48 -92 -86 -18 -35 -23 -63 -26 -174 l-4
-133 2100 0 2100 0 8 66 c8 81 -1 175 -20 213 -22 42 -90 98 -133 110 -40 11
-3903 15 -3933 4z"/>
<path d="M13605 14270 l-750 -5 -55 -26 c-74 -36 -130 -86 -164 -149 -58 -106
-56 -68 -56 -1177 l0 -1023 5133 0 c2822 0 5662 -3 6310 -7 647 -3 1177 -3
1177 1 0 4 -17 30 -39 59 -135 181 -239 450 -272 702 -12 92 -8 384 6 418 7
16 -158 17 -3377 17 l-3385 0 -251 509 c-218 441 -257 515 -300 559 -58 59
-145 106 -227 121 -60 11 -2185 12 -3750 1z m1756 -813 c29 -16 54 -40 74 -72
61 -98 27 -229 -74 -282 l-44 -23 -947 0 -947 0 -44 23 c-24 13 -57 43 -74 66
-26 37 -30 51 -30 111 0 60 4 74 30 111 17 23 50 53 74 66 l44 23 947 0 947 0
44 -23z"/>
<path d="M6990 13360 c0 -122 14 -191 47 -231 51 -60 6 -57 898 -60 451 -1
1010 -2 1243 -1 l422 2 0 128 c0 70 -3 157 -7 195 l-6 67 -1298 0 -1299 0 0
-100z"/>
<path d="M13634 10861 c-30 -19 -64 -57 -64 -73 0 -5 61 -8 136 -8 l136 0 -19
31 c-37 64 -128 87 -189 50z"/>
<path d="M14335 10604 c23 -18 118 -15 137 4 9 9 -8 12 -72 12 -79 -1 -84 -2
-65 -16z"/>
<path d="M19591 9141 l-1 -571 75 0 75 0 0 468 c0 257 0 479 0 495 l0 27 495
0 495 0 0 70 c0 39 -1 70 -2 70 -2 1 -258 3 -569 7 l-566 5 -2 -571z"/>
<path d="M23063 9702 l-123 -3 0 -69 0 -70 493 -2 492 -3 3 -492 2 -493 73 0
73 0 -1 313 c-1 171 -2 428 -3 570 l-2 258 -442 -3 c-244 -2 -498 -4 -565 -6z"/>
<path d="M25086 8734 c-165 -40 -304 -173 -363 -346 -17 -49 -18 -131 -21
-1195 l-3 -1141 -53 -30 c-88 -50 -87 -47 -84 -431 l3 -329 24 -26 c14 -15 44
-38 68 -52 l43 -25 0 -174 0 -174 -50 -27 c-90 -49 -90 -50 -90 -364 0 -314 0
-315 90 -364 l50 -27 0 -1782 c0 -1509 3 -1792 15 -1850 37 -174 174 -325 342
-377 64 -20 90 -20 2277 -20 2172 0 2214 0 2270 20 93 32 154 70 216 137 64
68 111 157 129 241 15 71 16 7864 1 7943 -26 140 -143 296 -265 354 -124 58
24 55 -2350 54 -1856 -1 -2199 -3 -2249 -15z m1420 -370 c51 -35 56 -43 99
-152 21 -51 49 -107 63 -124 50 -59 39 -58 668 -58 576 0 576 0 616 22 45 26
64 54 108 163 18 44 44 95 57 113 48 65 18 62 718 62 704 0 679 2 731 -66 l29
-37 0 -3886 c0 -3765 -1 -3887 -19 -3920 -23 -43 -72 -89 -113 -107 -27 -12
-357 -14 -2130 -14 -2016 0 -2100 1 -2139 19 -58 26 -111 92 -124 155 -7 35
-9 1226 -8 3897 l3 3846 30 43 c16 24 43 49 60 56 24 10 165 13 671 14 l641 0
39 -26z"/>
<path d="M27766 7119 c68 -75 197 -78 263 -5 l24 26 -153 0 -153 0 19 -21z"/>
<path d="M21251 7274 c0 -11 3 -14 6 -6 3 7 2 16 -1 19 -3 4 -6 -2 -5 -13z"/>
<path d="M21271 7264 c-2 -67 191 -340 382 -540 181 -190 200 -191 367 -18
151 156 337 397 392 509 9 19 12 39 7 55 l-7 25 -2 -25 -2 -25 -8 25 -8 25 -2
-25 -2 -25 -8 25 -8 25 -2 -25 -2 -25 -8 25 -8 25 -2 -25 -2 -25 -8 25 -8 25
-2 -25 -2 -25 -8 25 -8 25 -2 -25 -2 -25 -8 25 -8 25 -2 -25 -2 -25 -8 25 -8
25 -2 -25 -2 -25 -8 25 -8 25 -2 -25 -2 -25 -8 25 -8 25 -2 -25 -2 -25 -8 25
-8 25 -2 -25 -2 -25 -8 25 -8 25 -2 -25 -2 -25 -8 25 -8 25 -2 -25 -2 -25 -8
25 -8 25 -2 -25 -2 -25 -8 25 -8 25 -2 -25 -2 -25 -8 25 -8 25 -2 -25 -2 -25
-8 25 -8 25 -2 -25 -2 -25 -8 25 -8 25 -2 -25 -2 -25 -8 25 -8 25 -2 -25 -2
-25 -8 25 -8 25 -2 -25 -2 -25 -8 25 -8 25 -2 -25 -2 -25 -8 25 -8 25 -2 -25
-2 -25 -8 25 -8 25 -2 -25 -2 -25 -8 25 -8 25 -2 -25 -2 -25 -8 25 -8 25 -2
-25 -2 -25 -8 25 -8 25 -2 -25 -2 -25 -8 25 -8 25 -2 -25 -2 -25 -8 25 -8 25
-2 -25 -2 -25 -8 25 -8 25 -2 -25 -2 -25 -8 25 -8 25 -2 -25 -2 -25 -8 25 -8
25 -2 -25 -2 -25 -8 25 -8 25 -2 -25 -2 -25 -8 25 -8 25 -2 -25 -2 -25 -8 25
-8 25 -2 -25 -2 -25 -8 25 -8 25 -2 -25 -2 -25 -8 25 -8 25 -2 -25 -2 -25 -8
25 -8 25 -2 -25 -2 -25 -8 25 -8 25 -2 -25 -2 -25 -8 25 -8 25 -2 -25 -2 -25
-8 25 -8 25 -2 -25 -2 -25 -8 25 -8 25 -2 -25 -2 -25 -8 25 -8 25 -2 -25 -2
-25 -8 25 -8 25 -2 -25 -2 -25 -8 25 -8 25 -2 -25 -2 -25 -8 25 -8 25 -2 -25
-2 -25 -8 25 -8 25 -2 -25 -2 -25 -8 25 -8 25 -2 -25 -2 -25 -8 25 -8 25 -2
-25 -2 -25 -8 25 -8 25 -2 -25 -2 -25 -8 25 -8 25 -2 -25 -2 -25 -8 25 -8 25
-2 -25 -2 -25 -8 25 -8 25 -2 -25 -2 -25 -8 25 -8 25 -2 -25 -2 -25 -8 25 -8
25 -2 -25 -2 -25 -8 25 -8 25 -2 -25 -2 -25 -8 25 -8 25 -2 -25 -2 -25 -8 25
-8 25 -2 -25 -2 -25 -8 25 c-8 24 -8 24 -9 -6z"/>
<path d="M22431 7274 c0 -11 3 -14 6 -6 3 7 2 16 -1 19 -3 4 -6 -2 -5 -13z"/>
<path d="M19591 5791 l2 -568 341 2 c188 1 443 3 569 3 l227 2 0 70 0 70 -92
1 c-51 0 -271 2 -490 2 -218 1 -399 5 -402 8 -4 3 -7 225 -7 493 l0 486 -75 0
-74 0 1 -569z"/>
<path d="M23930 5871 c0 -458 -1 -490 -17 -495 -10 -2 -193 -4 -408 -4 -214 0
-429 -1 -477 -1 l-88 -1 0 -70 0 -70 228 -2 c125 0 379 -2 565 -3 l337 -2 2
261 c1 144 2 399 3 569 l1 307 -73 0 -73 0 0 -489z"/>
</g>
</svg>
