<svg xmlns="http://www.w3.org/2000/svg" xmlns:xlink="http://www.w3.org/1999/xlink" width="250" height="250" version="1.1" viewBox="0 0 2604.17 2604.17" xml:space="preserve" style="shape-rendering:geometricPrecision;text-rendering:geometricPrecision;image-rendering:optimizeQuality;fill-rule:evenodd;clip-rule:evenodd"><defs><style type="text/css">.str0{stroke:#fff;stroke-width:41.67;stroke-miterlimit:2.61313}.fil0{fill:url(#id0)}</style><linearGradient id="id0" x1="-759.37" x2="3136.46" y1="1299.35" y2="1299.35" gradientUnits="userSpaceOnUse"><stop offset="0" style="stop-opacity:0;stop-color:#7eaef4"/><stop offset="1" style="stop-opacity:0;stop-color:#623c8d"/></linearGradient></defs><g id="Layer_x0020_1"><metadata id="CorelCorpID_0Corel-Layer"/><path d="M604.86 933.44c47.72,157.26 220.11,378.25 352.86,479 144.67,109.8 294.67,191.29 483.37,233.7 52.54,11.81 47.41,20.5 77.41,-10.7l109.29 -109.47c33.7,-32.79 27.94,-20.89 15.44,-76.88 -33.48,-150.02 -120.5,-347.4 -210.56,-455.5 -43.43,-52.13 -75.03,-97.09 -127.55,-147.2 -10.84,-10.34 -19.99,-14.63 -31.03,-25.06 -76.01,-71.81 -249.77,-190.66 -345.9,-212.54l-323.33 324.65zm693.9 1154.37l46.89 -342.93c-48.02,-12.07 -109.35,-34.31 -152.95,-53.57 -23.63,-10.43 -47.43,-19.88 -70.57,-31.28 -24.37,-12.01 -44.81,-26.89 -72.6,-34.54 0.79,58.33 2.38,116.74 2.52,175.04 0.13,51.13 -4.96,47.27 66.09,112.7 33.25,30.62 55.7,54.78 86.35,86.63 18.42,19.14 71.84,73.64 94.27,87.95zm446.06 -743.5l342.98 -46.22c-22.53,-34.53 -141.07,-143.74 -174.5,-180.03 -14.24,-15.46 -27,-23.7 -43.64,-42.87 -21.77,-25.08 -18.28,-22.92 -63.92,-23.21 -60.06,-0.38 -120.1,-1.72 -180.17,-2.54 9.95,35.59 84.83,151.96 119.25,294.86zm-1180.21 -540.81c21.68,-6.15 45.71,-38.5 62.05,-54.85l176.92 -184.12c-69.69,-27.37 -205.5,-43.11 -287.2,-48.16 4.65,79.58 21.72,219.33 48.23,287.13zm1110.07 955.15l161.49 158.74c19.46,-17 72.77,-64.7 82.61,-87.89 -33.65,-23.38 -125.35,-129.61 -159,-154.58l-85.09 83.73zm-124.13 127.71c9.25,17.15 101.11,109.17 117.77,117.31l81.63 -80.58c-8.25,-17.1 -100.62,-109.43 -117.23,-117.77l-82.17 81.04zm254.72 -254.4l117.15 116.42 85.92 -83.51c-39.07,-40.14 -78.57,-78.07 -116.78,-117.3l-86.29 84.4zm-747.83 -734.89c88.05,0 159.43,71.54 159.43,159.77 0,88.23 -71.38,159.77 -159.43,159.77 -88.05,0 -159.43,-71.54 -159.43,-159.77 0,-88.24 71.38,-159.77 159.43,-159.77z" class="fil0 str0"/></g></svg>